<svg width="282" height="44" viewBox="0 0 282 44" fill="none" xmlns="http://www.w3.org/2000/svg">
<path d="M13.631 30.0484V18.0181C13.631 16.7379 13.1704 15.4998 12.3319 14.532L0.00390625 0.292969V43.6772H43.3874L29.1486 31.3489C28.1808 30.5105 26.9428 30.0499 25.6626 30.0499H13.6325L13.631 30.0484Z" fill="#D7282F"/>
<path d="M29.7578 21.0234V25.9568C29.7578 27.2369 30.2184 28.475 31.0569 29.4428L43.3864 43.6819V21.0234H29.7578Z" fill="#C8A977"/>
<path d="M43.3835 0.292969H0L14.2388 12.6212C15.2066 13.4596 16.4446 13.9203 17.7248 13.9203H27.5492C28.9616 13.9203 30.3159 13.3594 31.3141 12.3611L43.3821 0.292969H43.3835Z" fill="#C8A977"/>
<path d="M57.6385 37.355H63.8258C63.6006 38.6715 62.967 39.7424 61.9237 40.5692C60.8804 41.3961 59.5159 41.8087 57.8318 41.8087C55.8585 41.8087 54.2485 41.1825 53.0046 39.9299C51.7608 38.6787 51.1388 37.1224 51.1388 35.261C51.1388 33.3996 51.7564 31.8389 52.993 30.5776C54.2281 29.3178 55.8091 28.6886 57.7359 28.6886C58.9071 28.6886 59.978 28.9661 60.9501 29.5197C61.9208 30.0734 62.6473 30.8072 63.1283 31.7227L65.0536 30.5922C64.3474 29.373 63.3448 28.3892 62.0443 27.6423C60.7452 26.8969 59.3168 26.5234 57.7591 26.5234C55.2235 26.5234 53.118 27.3706 51.4411 29.0635C49.7642 30.7578 48.9258 32.8227 48.9258 35.2625C48.9258 37.7022 49.7642 39.7686 51.4411 41.4615C53.118 43.1543 55.2409 44.0015 57.8085 44.0015C60.3761 44.0015 62.2942 43.2764 63.8025 41.8233C65.3108 40.3716 66.065 38.545 66.065 36.3465V35.3351H57.64V37.3564L57.6385 37.355Z" fill="#C8A977"/>
<path d="M79.7957 35.0446C80.4452 34.1466 80.7707 33.1512 80.7707 32.0599C80.7707 30.6155 80.2563 29.3833 79.229 28.3646C78.2016 27.346 76.9665 26.8359 75.5221 26.8359H68.7812V43.6877H71.0205V37.2359H74.9976L78.7727 43.6877H81.2517L77.2804 36.9467C78.3077 36.5776 79.1462 35.9441 79.7957 35.0446ZM71.0219 35.2132V28.9299H75.5236C76.3577 28.9299 77.0682 29.235 77.6538 29.8439C78.2394 30.4542 78.5315 31.1924 78.5315 32.0584C78.5315 32.9245 78.2394 33.667 77.6538 34.2846C77.0682 34.9022 76.3577 35.2117 75.5236 35.2117H71.0219V35.2132Z" fill="#C8A977"/>
<path d="M91.2415 26.5195C88.8018 26.5195 86.7399 27.3667 85.0543 29.0596C83.3701 30.7539 82.5273 32.8188 82.5273 35.2585C82.5273 37.6983 83.3701 39.7443 85.0543 41.4445C86.7399 43.1461 88.8018 43.9961 91.2415 43.9961C93.6813 43.9961 95.7476 43.1461 97.4404 41.4445C99.1333 39.7443 99.9804 37.6809 99.9804 35.2585C99.9804 32.8362 99.1333 30.7525 97.4404 29.0596C95.7476 27.3667 93.6813 26.5195 91.2415 26.5195ZM95.8754 39.9158C94.6316 41.1756 93.087 41.8063 91.2415 41.8063C89.3961 41.8063 87.8515 41.1756 86.6076 39.9158C85.3638 38.6559 84.7419 37.104 84.7419 35.2585C84.7419 33.4131 85.3638 31.8365 86.6076 30.5752C87.8515 29.3153 89.3961 28.6861 91.2415 28.6861C93.087 28.6861 94.6316 29.3168 95.8754 30.5752C97.1193 31.835 97.7412 33.3957 97.7412 35.2585C97.7412 37.1214 97.1193 38.6574 95.8754 39.9158Z" fill="#C8A977"/>
<path d="M112.764 37.9334C112.764 39.1206 112.411 40.0637 111.705 40.7611C110.999 41.4601 109.987 41.8088 108.672 41.8088C107.357 41.8088 106.346 41.4601 105.638 40.7611C104.932 40.0637 104.579 39.1206 104.579 37.9334V26.8359H102.34V38.0307C102.34 39.8442 102.93 41.293 104.11 42.3755C105.29 43.4581 106.81 44.0001 108.671 44.0001C110.532 44.0001 112.049 43.4581 113.221 42.3755C114.392 41.293 114.977 39.8442 114.977 38.0307V26.8359H112.763V37.9334H112.764Z" fill="#C8A977"/>
<path d="M128.4 28.3854C127.365 27.3508 126.069 26.832 124.513 26.832H118.398V43.6838H120.638V37.665H124.513C126.069 37.665 127.365 37.1433 128.4 36.1C129.435 35.0567 129.953 33.7736 129.953 32.2478C129.953 30.722 129.436 29.4186 128.4 28.384V28.3854ZM126.823 34.6207C126.213 35.2543 125.443 35.5725 124.513 35.5725H120.638V28.9289H124.513C125.443 28.9289 126.213 29.2413 126.823 29.8676C127.432 30.4939 127.737 31.2873 127.737 32.2507C127.737 33.2141 127.432 33.9886 126.823 34.6222V34.6207Z" fill="#C8A977"/>
<path d="M63.9574 17.7895H53.8686C53.6593 17.7895 53.4893 17.6195 53.4893 17.4073V0.677573C53.4893 0.463965 53.3193 0.296875 53.1086 0.296875H50.0135C49.8028 0.296875 49.6328 0.463965 49.6328 0.677573V20.671C49.6328 20.8802 49.8028 21.0531 50.0135 21.0531H63.9574C64.1681 21.0531 64.3396 20.8802 64.3396 20.671V18.1702C64.3396 17.958 64.1666 17.7909 63.9574 17.7909V17.7895Z" fill="#D7282F"/>
<path d="M76.1368 0C72.7627 0 69.7142 1.13489 67.7452 2.94692C67.5941 3.08497 67.5868 3.32035 67.7234 3.47293L69.5252 5.50875C69.6633 5.66568 69.9103 5.68748 70.0673 5.54362C71.6555 4.09341 73.8932 3.37849 76.1063 3.37849C79.6242 3.37849 82.4897 5.74417 83.1218 9.08924C83.164 9.3261 82.9882 9.54696 82.7469 9.54696H65.9012C65.692 9.54696 65.5234 9.71699 65.5234 9.92769V10.4958C65.5234 16.0918 69.1082 20.2927 74.2783 21.1748C82.5508 22.5858 88.4256 16.8619 86.958 8.60389C86.0571 3.53397 81.8053 0.00290907 76.1354 0.00290907L76.1368 0ZM83.0085 13.0417C82.2732 16.1499 79.8466 18.1145 76.3446 18.1145C72.8427 18.1145 70.4189 16.2008 69.6299 13.0475C69.5674 12.8063 69.749 12.5694 69.999 12.5694H82.6365C82.8835 12.5694 83.0637 12.8005 83.0085 13.0417Z" fill="#D7282F"/>
<path d="M106.74 17.788H95.3243C95.0003 17.788 94.8245 17.416 95.0265 17.169L106.65 2.97932C106.705 2.91248 106.735 2.82821 106.735 2.73811V0.676118C106.735 0.46687 106.565 0.296875 106.355 0.296875H90.0104C89.7982 0.296875 89.6282 0.46687 89.6282 0.676118V3.17696C89.6282 3.38911 89.7982 3.55911 90.0104 3.55911H100.833C101.154 3.55911 101.33 3.93111 101.128 4.17814L89.5062 18.3649C89.4524 18.4332 89.4219 18.5189 89.4219 18.6061V20.6681C89.4219 20.8802 89.5919 21.0503 89.8011 21.0503H106.741C106.953 21.0503 107.121 20.8802 107.121 20.6681V18.1687C107.121 17.958 106.953 17.788 106.741 17.788H106.74Z" fill="#D7282F"/>
<path d="M168.554 0.292969H151.702C151.493 0.292969 151.324 0.462963 151.324 0.672212V3.17305C151.324 3.38521 151.493 3.5552 151.702 3.5552H157.822C158.032 3.5552 158.202 3.72233 158.202 3.93448V20.6642C158.202 20.8763 158.372 21.0464 158.582 21.0464H161.675C161.885 21.0464 162.057 20.8763 162.057 20.6642V3.93448C162.057 3.72233 162.224 3.5552 162.435 3.5552H168.554C168.764 3.5552 168.934 3.38521 168.934 3.17305V0.672212C168.934 0.462963 168.764 0.292969 168.554 0.292969Z" fill="#D7282F"/>
<path d="M139.194 0C135.82 0 132.773 1.13489 130.804 2.94692C130.651 3.08497 130.644 3.32035 130.781 3.47293L132.584 5.50875C132.722 5.66568 132.969 5.68748 133.123 5.54362C134.713 4.09341 136.952 3.37849 139.165 3.37849C142.683 3.37849 145.548 5.74417 146.18 9.08924C146.223 9.3261 146.047 9.54696 145.806 9.54696H128.96C128.751 9.54696 128.582 9.71699 128.582 9.92769V10.4958C128.582 16.0918 132.167 20.2927 137.337 21.1748C145.609 22.5858 151.484 16.8619 150.017 8.60389C149.116 3.53397 144.865 0.00290907 139.194 0.00290907V0ZM146.066 13.0417C145.33 16.1499 142.904 18.1145 139.402 18.1145C135.9 18.1145 133.476 16.2008 132.684 13.0475C132.626 12.8063 132.806 12.5694 133.056 12.5694H145.694C145.941 12.5694 146.121 12.8005 146.066 13.0417Z" fill="#D7282F"/>
<path d="M126.391 17.788H114.973C114.652 17.788 114.476 17.416 114.678 17.169L126.298 2.97932C126.356 2.91248 126.385 2.82821 126.385 2.73811V0.676118C126.385 0.46687 126.215 0.296875 126.006 0.296875H109.659C109.448 0.296875 109.278 0.46687 109.278 0.676118V3.17696C109.278 3.38911 109.448 3.55911 109.659 3.55911H120.484C120.805 3.55911 120.981 3.93111 120.776 4.17814L109.156 18.3649C109.102 18.4332 109.07 18.5189 109.07 18.6061V20.6681C109.07 20.8802 109.24 21.0503 109.448 21.0503H126.39C126.6 21.0503 126.77 20.8802 126.77 20.6681V18.1687C126.77 17.958 126.6 17.788 126.39 17.788H126.391Z" fill="#D7282F"/>
</svg>
