<svg width="52" height="52" viewBox="0 0 52 52" fill="none" xmlns="http://www.w3.org/2000/svg">
<path fill-rule="evenodd" clip-rule="evenodd" d="M26.0026 7.04818C21.8144 7.04818 18.4193 10.4434 18.4193 14.6315V17.8815H14.0859V14.6315C14.0859 8.05012 19.4212 2.71484 26.0026 2.71484C32.584 2.71484 37.9193 8.05012 37.9193 14.6315V17.8815H33.5859V14.6315C33.5859 10.4434 30.1908 7.04818 26.0026 7.04818Z" fill="#D7282F"/>
<path fill-rule="evenodd" clip-rule="evenodd" d="M48.8969 48.7379C49.2055 48.382 49.3446 47.9097 49.278 47.4434L44.7453 15.7148H7.25993L2.72728 47.4434C2.66066 47.9097 2.79969 48.382 3.10834 48.7379C3.41698 49.0938 3.86487 49.2982 4.33595 49.2982H47.6693C48.1404 49.2982 48.5882 49.0938 48.8969 48.7379ZM30.3359 23.8398C30.3359 25.4435 28.7041 27.0898 26.0026 27.0898C23.3011 27.0898 21.6693 25.4435 21.6693 23.8398H17.3359C17.3359 28.7362 21.9195 31.4232 26.0026 31.4232C30.0857 31.4232 34.6693 28.7362 34.6693 23.8398H30.3359Z" fill="#D7282F"/>
</svg>
