<svg width="44" height="48" viewBox="0 0 44 48" fill="none" xmlns="http://www.w3.org/2000/svg">
<path fill-rule="evenodd" clip-rule="evenodd" d="M6.9552 11.4848C5.61417 16.3308 7.79116 21.9237 12.2119 24.8249C14.4105 26.2678 17.8864 27.7262 21.8096 27.7998C25.7962 27.8745 30.1854 26.5125 34.024 22.4006C34.3857 22.0132 34.5357 21.4737 34.4259 20.9552C34.3162 20.4367 33.9604 20.0043 33.4728 19.7966C30.7205 18.6246 29.1305 16.3491 27.6073 13.6719C27.4053 13.3169 27.2003 12.9471 26.992 12.5712C26.4497 11.5929 25.8845 10.5734 25.2889 9.66427C24.4466 8.37846 23.4308 7.12571 22.0613 6.22694C17.3858 3.15852 11.5289 4.00009 8.48042 8.26814C11.7087 12.1817 15.1533 14.8524 18.4411 16.6336C19.2301 17.0612 19.5233 18.0474 19.0957 18.8365C18.6682 19.6256 17.6819 19.9187 16.8929 19.4912C13.5682 17.6899 10.1611 15.103 6.9552 11.4848Z" fill="#D7282F"/>
<path fill-rule="evenodd" clip-rule="evenodd" d="M3.91802 1.54599C3.47943 0.763 2.48914 0.48381 1.70615 0.922404C0.923156 1.361 0.643967 2.35129 1.08256 3.13428C2.90582 6.38922 4.8887 9.14994 6.9552 11.4822C7.13827 10.8207 7.38689 10.1731 7.70431 9.54813C7.93645 9.09108 8.19623 8.66342 8.48042 8.26554C6.89247 6.34047 5.35686 4.11465 3.91802 1.54599Z" fill="#D7282F"/>
<path d="M6.35309 23.8505C7.29237 23.1914 7.49277 21.9319 6.80071 21.0374C6.10865 20.1428 4.78618 19.952 3.84691 20.6111C2.25259 21.7298 0.875 23.3303 0.875 25.3935V26.1772C0.875 34.6783 6.78335 41.9168 12.8868 45.9147C14.4094 46.912 16.1667 47.3022 17.8464 47.3022H26.1536C27.8333 47.3022 29.5906 46.912 31.1132 45.9147C37.2167 41.9168 43.125 34.6783 43.125 26.1772V25.3935C43.125 23.3303 41.7474 21.7298 40.1531 20.6111C39.2138 19.952 37.8914 20.1428 37.1993 21.0374C36.5072 21.9319 36.7076 23.1914 37.6469 23.8505C38.7527 24.6264 38.9 25.1767 38.9 25.3935C38.9 25.5762 38.8059 25.9817 38.1048 26.5829C37.4042 27.1838 36.2715 27.8171 34.6919 28.3901C31.5474 29.5307 27.0607 30.2783 22 30.2783C16.9393 30.2783 12.4526 29.5307 9.30806 28.3901C7.72846 27.8171 6.59582 27.1838 5.89524 26.5829C5.19414 25.9817 5.1 25.5762 5.1 25.3935C5.1 25.1767 5.24734 24.6264 6.35309 23.8505Z" fill="#D7282F"/>
</svg>
