<svg width="38" height="48" viewBox="0 0 38 48" fill="none" xmlns="http://www.w3.org/2000/svg">
<path fill-rule="evenodd" clip-rule="evenodd" d="M17.6083 9.88088C18.4643 8.07503 19.715 6.68067 21.0269 5.84045C22.4774 4.91144 23.83 4.74866 24.8517 5.11743C25.8439 5.47556 26.6668 6.38691 27.0526 7.89544C27.4408 9.41375 27.3303 11.4107 26.4779 13.481C25.6535 15.4833 24.3459 17.0389 22.9543 17.9732L25.2738 21.4944C27.4059 20.0631 29.2267 17.8227 30.346 15.104C31.5001 12.3009 31.7536 9.36149 31.1085 6.83849C30.4608 4.3057 28.853 2.07076 26.2619 1.13552C23.7003 0.210903 20.9955 0.852553 18.7828 2.26967C16.5594 3.69373 14.6565 5.99212 13.5015 8.79727C13.161 9.62434 12.9001 10.4597 12.7171 11.2902L6.93787 12.9554L0.110759 38.6156C-0.0333309 39.1572 0.0415906 39.7344 0.319042 40.2202C0.596493 40.706 1.05375 41.0607 1.59021 41.2061L14.1568 44.6136C15.274 44.9165 16.4228 44.2478 16.7229 43.12C17.0229 41.9922 16.3605 40.8324 15.2434 40.5295L4.69954 37.6706L10.3681 16.3646L19.763 13.6577L21.5713 15.5479C22.3749 16.3879 23.7008 16.4112 24.5328 15.6C25.3649 14.7888 25.388 13.4502 24.5844 12.6102L21.0302 8.89492L17.6083 9.88088Z" fill="#D7282F"/>
<path d="M37.9557 45.6607C37.9557 46.5581 37.2282 47.2857 36.3307 47.2857H14.6641C13.7666 47.2857 13.0391 46.5581 13.0391 45.6607V18.7406L25.4974 11.2656L37.9557 18.7406V45.6607Z" fill="#D7282F"/>
</svg>
