<svg width="42" height="48" viewBox="0 0 42 48" fill="none" xmlns="http://www.w3.org/2000/svg">
<path fill-rule="evenodd" clip-rule="evenodd" d="M27.3343 3.26801C23.7497 -0.136211 18.2555 -0.136212 14.6709 3.26801C11.8975 5.90178 8.49936 9.53222 5.78455 13.6965C3.08194 17.8421 0.960938 22.6626 0.960938 27.6423C0.960938 37.3226 8.56039 47.2982 21.0026 47.2982C33.4448 47.2982 41.0443 37.3226 41.0443 27.6423C41.0443 22.6626 38.9233 17.8421 36.2207 13.6965C33.5059 9.53222 30.1077 5.90178 27.3343 3.26801ZM27.5026 28.3398C27.5026 31.9297 24.5925 34.8398 21.0026 34.8398C19.806 34.8398 18.8359 35.8099 18.8359 37.0065C18.8359 38.2031 19.806 39.1732 21.0026 39.1732C26.9857 39.1732 31.8359 34.3229 31.8359 28.3398C31.8359 27.1432 30.8659 26.1732 29.6693 26.1732C28.4727 26.1732 27.5026 27.1432 27.5026 28.3398Z" fill="#D7282F"/>
</svg>
