<svg width="22" height="20" viewBox="0 0 22 20" fill="none" xmlns="http://www.w3.org/2000/svg">
<path d="M0.25 14.5C0.25 11.6005 2.60051 9.25 5.5 9.25C8.3995 9.25 10.75 11.6005 10.75 14.5C10.75 17.3995 8.3995 19.75 5.5 19.75C2.60051 19.75 0.25 17.3995 0.25 14.5Z" fill="#D7282F"/>
<path d="M14.75 16.25C14.75 14.317 16.317 12.75 18.25 12.75C20.183 12.75 21.75 14.317 21.75 16.25C21.75 18.183 20.183 19.75 18.25 19.75C16.317 19.75 14.75 18.183 14.75 16.25Z" fill="#D7282F"/>
<path d="M20 10L18 10" stroke="#D7282F" stroke-width="1.5" stroke-linejoin="round"/>
<path fill-rule="evenodd" clip-rule="evenodd" d="M18 5.00012L19.0001 5L18.9999 3L16.9999 3.00024C16.4476 3.0003 16 3.448 16 4.00024V7.5H18V5.00012Z" fill="#D7282F"/>
<path fill-rule="evenodd" clip-rule="evenodd" d="M2.20309 2.19118H1.23229V0.25H12.3966V2.19118H11.7598L12.6824 5.26582L19.9131 7.0731C20.3453 7.18111 20.6484 7.56933 20.6484 8.01471V12.1514C19.9436 11.7374 19.1226 11.5 18.2461 11.5C15.6227 11.5 13.4961 13.6266 13.4961 16.25C13.4961 16.4189 13.5049 16.5857 13.5221 16.75H12.7363C12.445 16.75 12.1691 16.6192 11.9847 16.3937C11.8003 16.1682 11.727 15.8718 11.7849 15.5863C11.8676 15.1791 11.9112 14.7569 11.9112 14.3235C11.9112 10.8393 9.08597 8.01471 5.60092 8.01471C4.17896 8.01471 2.86938 8.48377 1.81472 9.27598L0.648438 7.72402C1.1286 7.36335 1.64958 7.05378 2.20309 6.80344V2.19118ZM4.14453 2.19141V6.20196C4.46227 6.14535 4.78625 6.10693 5.11534 6.08782V2.19141H4.14453ZM7.05695 2.19141V6.20181C8.52141 6.4625 9.8522 7.1094 10.9402 8.03341V6.21621L9.73247 2.19141H7.05695Z" fill="#D7282F"/>
</svg>
