<svg width="52" height="52" viewBox="0 0 52 52" fill="none" xmlns="http://www.w3.org/2000/svg">
<path fill-rule="evenodd" clip-rule="evenodd" d="M22.1441 47.3289C23.0884 47.8692 23.8779 48.2803 24.4354 48.5581L26 49.2826L27.5646 48.5581C28.1221 48.2803 28.9116 47.8692 29.8559 47.3289C31.7408 46.2503 34.2614 44.6461 36.7903 42.5457C41.7933 38.3901 47.125 32.0385 47.125 23.7549C47.125 12.1262 37.667 2.69922 26 2.69922C14.333 2.69922 4.875 12.1262 4.875 23.7549C4.875 32.0385 10.2067 38.3901 15.2097 42.5457C17.7386 44.6461 20.2592 46.2503 22.1441 47.3289ZM26 15.1576C21.2135 15.1576 17.3333 19.0378 17.3333 23.8242C17.3333 28.6107 21.2135 32.4909 26 32.4909C30.7865 32.4909 34.6667 28.6107 34.6667 23.8242C34.6667 19.0378 30.7865 15.1576 26 15.1576Z" fill="#D7282F"/>
</svg>
