<svg width="52" height="52" viewBox="0 0 52 52" fill="none" xmlns="http://www.w3.org/2000/svg">
<path fill-rule="evenodd" clip-rule="evenodd" d="M10.9552 13.4848C9.61417 18.3308 11.7912 23.9237 16.2119 26.8249C18.4105 28.2678 21.8864 29.7262 25.8096 29.7998C29.7962 29.8745 34.1854 28.5125 38.024 24.4006C38.3857 24.0132 38.5357 23.4737 38.4259 22.9552C38.3162 22.4367 37.9604 22.0043 37.4728 21.7966C34.7205 20.6246 33.1305 18.3491 31.6073 15.6719C31.4053 15.3169 31.2003 14.9471 30.992 14.5712C30.4497 13.5929 29.8845 12.5734 29.2889 11.6643C28.4466 10.3785 27.4308 9.12571 26.0613 8.22694C21.3858 5.15852 15.5289 6.00009 12.4804 10.2681C15.7087 14.1817 19.1533 16.8524 22.4411 18.6336C23.2301 19.0612 23.5233 20.0474 23.0957 20.8365C22.6682 21.6256 21.6819 21.9187 20.8929 21.4912C17.5682 19.6899 14.1611 17.103 10.9552 13.4848Z" fill="#D7282F"/>
<path fill-rule="evenodd" clip-rule="evenodd" d="M7.91802 3.54599C7.47943 2.763 6.48914 2.48381 5.70615 2.9224C4.92316 3.361 4.64397 4.35129 5.08256 5.13428C6.90582 8.38922 8.8887 11.1499 10.9552 13.4822C11.1383 12.8207 11.3869 12.1731 11.7043 11.5481C11.9364 11.0911 12.1962 10.6634 12.4804 10.2655C10.8925 8.34047 9.35686 6.11465 7.91802 3.54599Z" fill="#D7282F"/>
<path d="M10.3531 25.8505C11.2924 25.1914 11.4928 23.9319 10.8007 23.0374C10.1086 22.1428 8.78618 21.952 7.84691 22.6111C6.25259 23.7298 4.875 25.3303 4.875 27.3935V28.1772C4.875 36.6783 10.7834 43.9168 16.8868 47.9147C18.4094 48.912 20.1667 49.3022 21.8464 49.3022H30.1536C31.8333 49.3022 33.5906 48.912 35.1132 47.9147C41.2167 43.9168 47.125 36.6783 47.125 28.1772V27.3935C47.125 25.3303 45.7474 23.7298 44.1531 22.6111C43.2138 21.952 41.8914 22.1428 41.1993 23.0374C40.5072 23.9319 40.7076 25.1914 41.6469 25.8505C42.7527 26.6264 42.9 27.1767 42.9 27.3935C42.9 27.5762 42.8059 27.9817 42.1048 28.5829C41.4042 29.1838 40.2715 29.8171 38.6919 30.3901C35.5474 31.5307 31.0607 32.2783 26 32.2783C20.9393 32.2783 16.4526 31.5307 13.3081 30.3901C11.7285 29.8171 10.5958 29.1838 9.89524 28.5829C9.19414 27.9817 9.1 27.5762 9.1 27.3935C9.1 27.1767 9.24734 26.6264 10.3531 25.8505Z" fill="#D7282F"/>
</svg>
