<svg width="48" height="48" viewBox="0 0 48 48" fill="none" xmlns="http://www.w3.org/2000/svg">
<path fill-rule="evenodd" clip-rule="evenodd" d="M0.710938 24.0026C0.710938 11.1354 11.1231 0.710938 23.9591 0.710938C25.7386 0.710938 27.4732 0.911531 29.1411 1.29204L30.9625 1.70757L30.2936 3.45854C30.0421 4.11714 29.9035 4.83346 29.9035 5.58594C29.9035 7.74159 31.0462 9.6331 32.7685 10.6816L34.6629 11.8348L32.9927 13.2962C32.422 13.7955 32.0665 14.5237 32.0665 15.3359C32.0665 16.8281 33.2751 18.0443 34.774 18.0443C35.2746 18.0443 35.7388 17.9098 36.1379 17.6764L38.3994 16.3531L38.5679 18.9757C38.7673 22.0807 41.3479 24.5443 44.5073 24.5443C44.7703 24.5443 45.0285 24.5273 45.281 24.4946L47.2943 24.2337L47.0991 26.2624C45.9635 38.0696 36.035 47.2943 23.9591 47.2943C11.1231 47.2943 0.710938 36.8698 0.710938 24.0026ZM23.9256 24.0026C23.9256 25.1992 22.9595 26.1693 21.7677 26.1693H21.7483C20.5565 26.1693 19.5904 25.1992 19.5904 24.0026C19.5904 22.806 20.5565 21.8359 21.7483 21.8359H21.7677C22.9595 21.8359 23.9256 22.806 23.9256 24.0026ZM10.978 21.8359C12.1698 21.8359 13.1359 20.8659 13.1359 19.6693C13.136 18.4727 12.1698 17.5026 10.978 17.5026H10.9586C9.76683 17.5026 8.80069 18.4727 8.80069 19.6693C8.80069 20.8659 9.76683 21.8359 10.9586 21.8359H10.978ZM26.0836 37.0026C26.0836 38.1992 25.1174 39.1693 23.9256 39.1693H23.9063C22.7145 39.1693 21.7483 38.1992 21.7483 37.0026C21.7483 35.806 22.7145 34.8359 23.9063 34.8359H23.9256C25.1174 34.8359 26.0836 35.806 26.0836 37.0026ZM19.5255 8.77035L16.2886 12.0203L18.5774 14.3184L21.8143 11.0684L19.5255 8.77035ZM29.2362 31.5203L33.5521 27.187L35.8409 29.4851L31.525 33.8184L29.2362 31.5203ZM13.1865 28.2703L17.5024 32.6037L15.2136 34.9018L10.8977 30.5684L13.1865 28.2703Z" fill="#D7282F"/>
</svg>
